# xmcd CD database file
#
# Track frame offsets:
#	183
#	16068
#	30718
#	47663
#	68970
#	94085
#	99783
#	122250
#	146498
#	166083
#	190800
#	212650
#	229483
#
# Disc length: 3348 seconds
#
# Revision: 0
# Processed by: cddbd v1.5.1PL0 Copyright (c) Steve Scherf et al.
# Submitted via: CDex 1.51
#
DISCID=a10d120d
DTITLE=Nina Simone - Live and Kickin'
DYEAR=1987
DGENRE=Blues
TTITLE0=Sugar In My Bowl
TTITLE1=Backlash Blues
TTITLE2=Do What You Gotta Do
TTITLE3=Pirate Jenny
TTITLE4=For A While
TTITLE5=You Took My Teeth
TTITLE6=Mississippi Goddam
TTITLE7=See Lime Woman
TTITLE8=The Other Woman
TTITLE9=I Love You, Porgy
TTITLE10=Four Women
TTITLE11=I Sing Just To Know That I'm Alive
TTITLE12=My Baby Just Cares for Me
EXTD=YEAR: 1987
EXTT0=
EXTT1=
EXTT2=
EXTT3=
EXTT4=
EXTT5=
EXTT6=
EXTT7=
EXTT8=
EXTT9=
EXTT10=
EXTT11=
EXTT12=
PLAYORDER=
